<?xml version="1.0" encoding="utf-8"?>
<!-- Generator: Adobe Illustrator 19.2.1, SVG Export Plug-In . SVG Version: 6.00 Build 0)  -->
<svg version="1.1" id="layer" xmlns="http://www.w3.org/2000/svg" xmlns:xlink="http://www.w3.org/1999/xlink" x="0px" y="0px"
	 viewBox="0 0 652 652" style="enable-background:new 0 0 652 652;" xml:space="preserve">
<style type="text/css">
	.st0{fill:#0073B1;}
	.st1{fill-rule:evenodd;clip-rule:evenodd;}
	.st2{fill-rule:evenodd;clip-rule:evenodd;fill:#FFFFFF;}
</style>
<g>
	<path class="st0" d="M454.8,259.5c0-6.3,5.2-11.3,11.6-11.3h133.9c6.4,0,11.6,5.1,11.6,11.3V395c0,6.3-5.2,11.3-11.6,11.3H466.4
		c-6.4,0-11.6-5.1-11.6-11.3V259.5z"/>
	<polygon points="15,380.6 80.5,380.6 80.5,359.1 38.7,359.1 38.7,279.1 15,279.1 	"/>
	<path class="st1" d="M101.9,299.5c8.3,0,13.4-5.5,13.4-12.3c-0.2-7-5.2-12.3-13.3-12.3c-8.1,0-13.4,5.3-13.4,12.3
		c0,6.9,5.1,12.3,13.1,12.3H101.9z M113.7,309.3H90v71.4h23.7V309.3z"/>
	<path class="st1" d="M124.8,380.6h23.7v-39.9c0-2.1,0.2-4.3,0.8-5.8c1.7-4.3,5.6-8.7,12.2-8.7c8.6,0,12,6.5,12,16.1v38.2h23.7
		v-40.9c0-21.9-11.7-32.1-27.3-32.1c-12.8,0-18.4,7.2-21.5,12h0.2v-10.4h-23.7C125.1,316,124.8,380.6,124.8,380.6"/>
	<path d="M230.7,279.1h-23.7v101.5h23.7v-23.1l5.9-7.5l18.6,30.6h29.2l-31.2-44.3l27.3-30.2h-28.6c0,0-19.5,27-21.2,30.2V279.1z"/>
	<path class="st1" d="M298.5,334.8c0.6-6.1,4.7-15.1,14.8-15.1c10.8,0,13.3,9.6,13.3,15.1H298.5z M347.8,350.9
		c0.3-1.8,0.8-5.4,0.8-9.3c0-18.5-9.4-37.2-34-37.2c-26.4,0-38.6,20.9-38.6,39.8c0,23.4,14.8,38,40.7,38c10.3,0,19.8-1.5,27.6-4.7
		l-3.1-15.7c-6.4,2.1-13,3.2-21.1,3.2c-11.1,0-20.8-4.5-21.5-14.3L347.8,350.9z"/>
	<path class="st1" d="M407.2,347.6c0,1.8-0.2,3.7-0.5,5.2c-1.4,6.5-7,11.1-13.9,11.1c-9.8,0-16.2-7.9-16.2-20.4
		c0-11.7,5.5-21.2,16.4-21.2c7.3,0,12.5,5,13.9,11.3c0.3,1.4,0.3,2.9,0.3,4.3V347.6z M407.2,279.1v33.8h-0.3
		c-3.4-5-10.6-8.4-20.1-8.4c-18.3,0-34.3,14.6-34.2,39.6c0,23.2,14.5,38.2,32.6,38.2c9.8,0,19.2-4.3,23.9-12.5h0.5l0.9,10.8h21.1
		c-0.3-5-0.6-13.7-0.6-22.2v-79.3H407.2z"/>
	<path class="st2" d="M490.6,299.4c8.3,0,13.4-5.5,13.4-12.3c-0.2-7-5.2-12.3-13.3-12.3c-8.1,0-13.4,5.3-13.4,12.3
		c0,6.9,5.2,12.3,13.1,12.3H490.6z M502.4,309.2h-23.7v71.4h23.7V309.2z"/>
	<path class="st2" d="M515.5,380.6h23.7v-39.9c0-2.1,0.2-4.3,0.8-5.8c1.7-4.3,5.6-8.7,12.2-8.7c8.6,0,12,6.6,12,16.1v38.2H588v-40.9
		c0-21.9-11.7-32.1-27.3-32.1c-12.8,0-18.4,7.2-21.5,12h0.2v-10.4h-23.7C515.9,315.9,515.5,380.6,515.5,380.6"/>
	<path class="st1" d="M622.7,374.4c0-4,3.2-7.2,7.2-7.2c4,0,7.2,3.2,7.2,7.2c0,4-3.2,7.2-7.2,7.2
		C625.9,381.6,622.7,378.4,622.7,374.4 M621.2,374.4c0,4.8,3.9,8.7,8.7,8.7c4.8,0,8.7-3.9,8.7-8.7c0-4.8-3.9-8.7-8.7-8.7
		C625.1,365.7,621.2,369.6,621.2,374.4 M628.4,370.9h1.3c1.1,0,2.4,0,2.4,1.4c0,1.3-1.2,1.4-2.4,1.4h-1.3V370.9z M626.6,379.3h1.8
		v-4.1h1.3l2.5,4.1h1.9l-2.6-4.2c1.4-0.2,2.4-1,2.4-2.7c0-1.9-1.1-3-3.5-3h-3.8V379.3z"/>
</g>
</svg>
